<mxfile host="app.diagrams.net" modified="2020-12-04T07:49:49.356Z" agent="5.0 (Windows NT 10.0; Win64; x64) AppleWebKit/537.36 (KHTML, like Gecko) Chrome/84.0.4147.125 Safari/537.36" etag="IVF7nWS1cfIrfs8ymPDv" version="13.10.0" type="github" pages="3">
  <diagram name="V21.01" id="CAiqpney7QYIne7BvLJB">
    <mxGraphModel dx="1422" dy="762" grid="1" gridSize="10" guides="1" tooltips="1" connect="1" arrows="1" fold="1" page="1" pageScale="1" pageWidth="1169" pageHeight="827" math="0" shadow="0">
      <root>
        <mxCell id="46xnxFllRcmzvtGCd0vb-0" />
        <mxCell id="46xnxFllRcmzvtGCd0vb-1" parent="46xnxFllRcmzvtGCd0vb-0" />
        <mxCell id="46xnxFllRcmzvtGCd0vb-5" value="Master" style="text;html=1;strokeColor=#6c8ebf;fillColor=#dae8fc;align=center;verticalAlign=middle;whiteSpace=wrap;rounded=0;" vertex="1" parent="46xnxFllRcmzvtGCd0vb-1">
          <mxGeometry x="990" y="160" width="90" height="20" as="geometry" />
        </mxCell>
        <mxCell id="46xnxFllRcmzvtGCd0vb-10" value="Hot-fixes" style="text;html=1;strokeColor=#b85450;fillColor=#f8cecc;align=center;verticalAlign=middle;whiteSpace=wrap;rounded=0;" vertex="1" parent="46xnxFllRcmzvtGCd0vb-1">
          <mxGeometry x="990" y="80" width="90" height="70" as="geometry" />
        </mxCell>
        <mxCell id="6y1xAJ7a0zRgaMh8XxQY-8" value="" style="edgeStyle=orthogonalEdgeStyle;curved=1;rounded=0;sketch=0;orthogonalLoop=1;jettySize=auto;html=1;shadow=0;dashed=1;endArrow=none;endFill=0;fillColor=#dae8fc;strokeColor=#6c8ebf;" edge="1" parent="46xnxFllRcmzvtGCd0vb-1" source="46xnxFllRcmzvtGCd0vb-23" target="6y1xAJ7a0zRgaMh8XxQY-7">
          <mxGeometry relative="1" as="geometry" />
        </mxCell>
        <mxCell id="46xnxFllRcmzvtGCd0vb-23" value="1.0.0" style="ellipse;whiteSpace=wrap;html=1;aspect=fixed;fillColor=#dae8fc;strokeColor=#6c8ebf;fontStyle=1;labelPosition=center;verticalLabelPosition=top;align=center;verticalAlign=bottom;fontColor=#0066CC;direction=east;" vertex="1" parent="46xnxFllRcmzvtGCd0vb-1">
          <mxGeometry x="353.97" y="160" width="20" height="20" as="geometry" />
        </mxCell>
        <mxCell id="46xnxFllRcmzvtGCd0vb-24" value="" style="endArrow=none;dashed=1;html=1;fillColor=#dae8fc;strokeColor=#6c8ebf;" edge="1" parent="46xnxFllRcmzvtGCd0vb-1" target="46xnxFllRcmzvtGCd0vb-23">
          <mxGeometry width="50" height="50" relative="1" as="geometry">
            <mxPoint x="50" y="170" as="sourcePoint" />
            <mxPoint x="690" y="160" as="targetPoint" />
            <Array as="points" />
          </mxGeometry>
        </mxCell>
        <mxCell id="46xnxFllRcmzvtGCd0vb-26" value="releases" style="text;html=1;strokeColor=#d79b00;fillColor=#ffe6cc;align=center;verticalAlign=middle;whiteSpace=wrap;rounded=0;fontSize=12;" vertex="1" parent="46xnxFllRcmzvtGCd0vb-1">
          <mxGeometry x="990" y="190" width="90" height="90" as="geometry" />
        </mxCell>
        <mxCell id="79P04quMFGgAmsOIPXbY-18" style="edgeStyle=orthogonalEdgeStyle;curved=1;rounded=0;orthogonalLoop=1;jettySize=auto;html=1;exitX=0.5;exitY=0;exitDx=0;exitDy=0;dashed=1;endArrow=none;endFill=0;" edge="1" parent="46xnxFllRcmzvtGCd0vb-1" source="46xnxFllRcmzvtGCd0vb-28">
          <mxGeometry relative="1" as="geometry">
            <mxPoint x="140" y="351" as="targetPoint" />
          </mxGeometry>
        </mxCell>
        <mxCell id="79P04quMFGgAmsOIPXbY-16" style="edgeStyle=orthogonalEdgeStyle;curved=1;rounded=0;orthogonalLoop=1;jettySize=auto;html=1;exitX=1;exitY=0.5;exitDx=0;exitDy=0;dashed=1;endArrow=none;endFill=0;" edge="1" parent="46xnxFllRcmzvtGCd0vb-1" source="46xnxFllRcmzvtGCd0vb-28">
          <mxGeometry relative="1" as="geometry">
            <mxPoint x="150" y="360" as="targetPoint" />
          </mxGeometry>
        </mxCell>
        <mxCell id="79P04quMFGgAmsOIPXbY-17" style="edgeStyle=orthogonalEdgeStyle;curved=1;rounded=0;orthogonalLoop=1;jettySize=auto;html=1;dashed=1;endArrow=none;endFill=0;" edge="1" parent="46xnxFllRcmzvtGCd0vb-1" source="46xnxFllRcmzvtGCd0vb-35">
          <mxGeometry relative="1" as="geometry">
            <mxPoint x="130" y="360" as="targetPoint" />
          </mxGeometry>
        </mxCell>
        <mxCell id="46xnxFllRcmzvtGCd0vb-35" value="&lt;div style=&quot;text-align: justify&quot;&gt;&lt;br&gt;&lt;/div&gt;" style="ellipse;whiteSpace=wrap;html=1;aspect=fixed;fontSize=10;fillColor=#e1d5e7;strokeColor=#9673a6;verticalAlign=top;labelPosition=left;verticalLabelPosition=bottom;align=right;horizontal=1;fontColor=#A680B8;spacing=0;spacingBottom=2;spacingLeft=0;spacingTop=-8;" vertex="1" parent="46xnxFllRcmzvtGCd0vb-1">
          <mxGeometry x="90" y="350" width="20" height="20" as="geometry" />
        </mxCell>
        <mxCell id="46xnxFllRcmzvtGCd0vb-36" value="develop" style="text;html=1;strokeColor=#666666;fillColor=#f5f5f5;align=center;verticalAlign=middle;whiteSpace=wrap;rounded=0;fontColor=#333333;" vertex="1" parent="46xnxFllRcmzvtGCd0vb-1">
          <mxGeometry x="990" y="290" width="90" height="20" as="geometry" />
        </mxCell>
        <mxCell id="46xnxFllRcmzvtGCd0vb-97" style="edgeStyle=orthogonalEdgeStyle;rounded=1;orthogonalLoop=1;jettySize=auto;html=1;dashed=1;endArrow=none;endFill=0;fontSize=10;fontColor=#FFB570;fillColor=#e1d5e7;entryX=0;entryY=0.5;entryDx=0;entryDy=0;strokeColor=#E6D0DE;exitX=1;exitY=0.5;exitDx=0;exitDy=0;" edge="1" parent="46xnxFllRcmzvtGCd0vb-1">
          <mxGeometry relative="1" as="geometry">
            <Array as="points" />
            <mxPoint x="493.51" y="648" as="sourcePoint" />
            <mxPoint x="513.4800000000107" y="648" as="targetPoint" />
          </mxGeometry>
        </mxCell>
        <mxCell id="46xnxFllRcmzvtGCd0vb-100" value="features" style="text;html=1;strokeColor=#9673a6;fillColor=#e1d5e7;align=center;verticalAlign=middle;whiteSpace=wrap;rounded=0;" vertex="1" parent="46xnxFllRcmzvtGCd0vb-1">
          <mxGeometry x="990" y="330" width="90" height="111" as="geometry" />
        </mxCell>
        <mxCell id="46xnxFllRcmzvtGCd0vb-108" value="&lt;b&gt;&lt;font style=&quot;font-size: 22px&quot;&gt;Version MySys 21.01.00&lt;/font&gt;&lt;/b&gt;" style="shape=card;whiteSpace=wrap;html=1;" vertex="1" parent="46xnxFllRcmzvtGCd0vb-1">
          <mxGeometry x="60" width="241" height="100" as="geometry" />
        </mxCell>
        <mxCell id="79P04quMFGgAmsOIPXbY-13" style="edgeStyle=orthogonalEdgeStyle;curved=1;rounded=0;orthogonalLoop=1;jettySize=auto;html=1;exitX=0.5;exitY=1;exitDx=0;exitDy=0;entryX=0;entryY=0.5;entryDx=0;entryDy=0;dashed=1;endArrow=none;endFill=0;" edge="1" parent="46xnxFllRcmzvtGCd0vb-1" source="46xnxFllRcmzvtGCd0vb-33" target="46xnxFllRcmzvtGCd0vb-35">
          <mxGeometry relative="1" as="geometry" />
        </mxCell>
        <mxCell id="46xnxFllRcmzvtGCd0vb-33" value="" style="ellipse;whiteSpace=wrap;html=1;aspect=fixed;fontSize=12;fillColor=#FFFFFF;" vertex="1" parent="46xnxFllRcmzvtGCd0vb-1">
          <mxGeometry x="60" y="291" width="20" height="20" as="geometry" />
        </mxCell>
        <mxCell id="79P04quMFGgAmsOIPXbY-6" value="" style="endArrow=none;dashed=1;html=1;fillColor=#dae8fc;strokeColor=#6c8ebf;" edge="1" parent="46xnxFllRcmzvtGCd0vb-1">
          <mxGeometry width="50" height="50" relative="1" as="geometry">
            <mxPoint x="460" y="170" as="sourcePoint" />
            <mxPoint x="460" y="170" as="targetPoint" />
          </mxGeometry>
        </mxCell>
        <mxCell id="79P04quMFGgAmsOIPXbY-8" value="V21.01" style="shape=callout;whiteSpace=wrap;html=1;perimeter=calloutPerimeter;" vertex="1" parent="46xnxFllRcmzvtGCd0vb-1">
          <mxGeometry x="322.45000000000005" y="80" width="83.03" height="60" as="geometry" />
        </mxCell>
        <mxCell id="79P04quMFGgAmsOIPXbY-21" value="" style="edgeStyle=orthogonalEdgeStyle;curved=1;rounded=0;orthogonalLoop=1;jettySize=auto;html=1;dashed=1;endArrow=none;endFill=0;" edge="1" parent="46xnxFllRcmzvtGCd0vb-1" source="46xnxFllRcmzvtGCd0vb-28" target="79P04quMFGgAmsOIPXbY-20">
          <mxGeometry relative="1" as="geometry" />
        </mxCell>
        <mxCell id="46xnxFllRcmzvtGCd0vb-28" value="" style="ellipse;whiteSpace=wrap;html=1;aspect=fixed;fontSize=10;fillColor=#e1d5e7;strokeColor=#9673a6;" vertex="1" parent="46xnxFllRcmzvtGCd0vb-1">
          <mxGeometry x="130" y="350" width="20" height="20" as="geometry" />
        </mxCell>
        <mxCell id="79P04quMFGgAmsOIPXbY-19" style="edgeStyle=orthogonalEdgeStyle;curved=1;rounded=0;orthogonalLoop=1;jettySize=auto;html=1;exitX=1;exitY=0.5;exitDx=0;exitDy=0;dashed=1;endArrow=none;endFill=0;" edge="1" parent="46xnxFllRcmzvtGCd0vb-1" source="46xnxFllRcmzvtGCd0vb-35" target="46xnxFllRcmzvtGCd0vb-28">
          <mxGeometry relative="1" as="geometry">
            <mxPoint x="110" y="360" as="sourcePoint" />
            <mxPoint x="150" y="360" as="targetPoint" />
          </mxGeometry>
        </mxCell>
        <mxCell id="yrd6jnD9zKqD5jpfn4U5-3" value="" style="edgeStyle=orthogonalEdgeStyle;curved=1;rounded=0;sketch=0;orthogonalLoop=1;jettySize=auto;html=1;shadow=0;dashed=1;endArrow=none;endFill=0;fillColor=#ffe6cc;strokeColor=#d79b00;" edge="1" parent="46xnxFllRcmzvtGCd0vb-1" source="79P04quMFGgAmsOIPXbY-20" target="yrd6jnD9zKqD5jpfn4U5-2">
          <mxGeometry relative="1" as="geometry">
            <Array as="points">
              <mxPoint x="190" y="240" />
            </Array>
          </mxGeometry>
        </mxCell>
        <mxCell id="6y1xAJ7a0zRgaMh8XxQY-0" value="" style="edgeStyle=orthogonalEdgeStyle;curved=1;rounded=0;sketch=0;orthogonalLoop=1;jettySize=auto;html=1;shadow=0;dashed=1;endArrow=none;endFill=0;" edge="1" parent="46xnxFllRcmzvtGCd0vb-1" source="79P04quMFGgAmsOIPXbY-20" target="46xnxFllRcmzvtGCd0vb-33">
          <mxGeometry relative="1" as="geometry" />
        </mxCell>
        <mxCell id="6y1xAJ7a0zRgaMh8XxQY-2" value="" style="edgeStyle=orthogonalEdgeStyle;curved=1;rounded=0;sketch=0;orthogonalLoop=1;jettySize=auto;html=1;shadow=0;dashed=1;endArrow=none;endFill=0;entryX=0;entryY=0.5;entryDx=0;entryDy=0;" edge="1" parent="46xnxFllRcmzvtGCd0vb-1" source="79P04quMFGgAmsOIPXbY-20" target="yrd6jnD9zKqD5jpfn4U5-12">
          <mxGeometry relative="1" as="geometry">
            <mxPoint x="280" y="301" as="targetPoint" />
          </mxGeometry>
        </mxCell>
        <mxCell id="79P04quMFGgAmsOIPXbY-20" value="" style="ellipse;whiteSpace=wrap;html=1;aspect=fixed;fontSize=10;" vertex="1" parent="46xnxFllRcmzvtGCd0vb-1">
          <mxGeometry x="180" y="291" width="20" height="20" as="geometry" />
        </mxCell>
        <mxCell id="yrd6jnD9zKqD5jpfn4U5-6" value="" style="edgeStyle=orthogonalEdgeStyle;curved=1;rounded=0;sketch=0;orthogonalLoop=1;jettySize=auto;html=1;shadow=0;dashed=1;endArrow=none;endFill=0;fillColor=#ffe6cc;strokeColor=#d79b00;" edge="1" parent="46xnxFllRcmzvtGCd0vb-1" source="yrd6jnD9zKqD5jpfn4U5-2" target="yrd6jnD9zKqD5jpfn4U5-5">
          <mxGeometry relative="1" as="geometry" />
        </mxCell>
        <mxCell id="yrd6jnD9zKqD5jpfn4U5-2" value="" style="ellipse;whiteSpace=wrap;html=1;aspect=fixed;fontSize=10;fillColor=#ffe6cc;strokeColor=#d79b00;" vertex="1" parent="46xnxFllRcmzvtGCd0vb-1">
          <mxGeometry x="240" y="230" width="20" height="20" as="geometry" />
        </mxCell>
        <mxCell id="yrd6jnD9zKqD5jpfn4U5-7" value="" style="edgeStyle=orthogonalEdgeStyle;curved=1;rounded=0;sketch=0;orthogonalLoop=1;jettySize=auto;html=1;shadow=0;dashed=1;endArrow=none;endFill=0;entryX=0.5;entryY=1;entryDx=0;entryDy=0;fillColor=#ffe6cc;strokeColor=#d79b00;" edge="1" parent="46xnxFllRcmzvtGCd0vb-1" source="yrd6jnD9zKqD5jpfn4U5-5" target="46xnxFllRcmzvtGCd0vb-23">
          <mxGeometry relative="1" as="geometry">
            <mxPoint x="359" y="180" as="targetPoint" />
          </mxGeometry>
        </mxCell>
        <mxCell id="yrd6jnD9zKqD5jpfn4U5-13" value="" style="edgeStyle=orthogonalEdgeStyle;curved=1;rounded=0;sketch=0;orthogonalLoop=1;jettySize=auto;html=1;shadow=0;dashed=1;endArrow=none;endFill=0;exitX=1;exitY=1;exitDx=0;exitDy=0;fillColor=#fff2cc;strokeColor=#d6b656;" edge="1" parent="46xnxFllRcmzvtGCd0vb-1" source="46xnxFllRcmzvtGCd0vb-23" target="yrd6jnD9zKqD5jpfn4U5-12">
          <mxGeometry relative="1" as="geometry" />
        </mxCell>
        <mxCell id="yrd6jnD9zKqD5jpfn4U5-5" value="" style="ellipse;whiteSpace=wrap;html=1;aspect=fixed;fontSize=10;fillColor=#ffe6cc;strokeColor=#d79b00;" vertex="1" parent="46xnxFllRcmzvtGCd0vb-1">
          <mxGeometry x="281" y="230" width="20" height="20" as="geometry" />
        </mxCell>
        <mxCell id="yrd6jnD9zKqD5jpfn4U5-11" value="release/V21.01" style="text;html=1;strokeColor=#d79b00;fillColor=#ffe6cc;align=center;verticalAlign=middle;whiteSpace=wrap;rounded=0;fontSize=12;" vertex="1" parent="46xnxFllRcmzvtGCd0vb-1">
          <mxGeometry x="110" y="230" width="90" height="20" as="geometry" />
        </mxCell>
        <mxCell id="6y1xAJ7a0zRgaMh8XxQY-11" value="" style="edgeStyle=orthogonalEdgeStyle;curved=1;rounded=0;sketch=0;orthogonalLoop=1;jettySize=auto;html=1;shadow=0;dashed=1;endArrow=none;endFill=0;" edge="1" parent="46xnxFllRcmzvtGCd0vb-1" source="yrd6jnD9zKqD5jpfn4U5-12" target="6y1xAJ7a0zRgaMh8XxQY-10">
          <mxGeometry relative="1" as="geometry" />
        </mxCell>
        <mxCell id="6y1xAJ7a0zRgaMh8XxQY-13" value="" style="edgeStyle=orthogonalEdgeStyle;curved=1;rounded=0;sketch=0;orthogonalLoop=1;jettySize=auto;html=1;shadow=0;dashed=1;endArrow=none;endFill=0;" edge="1" parent="46xnxFllRcmzvtGCd0vb-1" source="yrd6jnD9zKqD5jpfn4U5-12" target="6y1xAJ7a0zRgaMh8XxQY-12">
          <mxGeometry relative="1" as="geometry">
            <Array as="points">
              <mxPoint x="420" y="380" />
            </Array>
          </mxGeometry>
        </mxCell>
        <mxCell id="yrd6jnD9zKqD5jpfn4U5-12" value="" style="ellipse;whiteSpace=wrap;html=1;aspect=fixed;fontSize=10;" vertex="1" parent="46xnxFllRcmzvtGCd0vb-1">
          <mxGeometry x="410" y="291" width="20" height="20" as="geometry" />
        </mxCell>
        <mxCell id="6y1xAJ7a0zRgaMh8XxQY-30" value="" style="edgeStyle=orthogonalEdgeStyle;curved=1;rounded=0;sketch=0;orthogonalLoop=1;jettySize=auto;html=1;shadow=0;dashed=1;endArrow=none;endFill=0;" edge="1" parent="46xnxFllRcmzvtGCd0vb-1" source="6y1xAJ7a0zRgaMh8XxQY-7" target="6y1xAJ7a0zRgaMh8XxQY-29">
          <mxGeometry relative="1" as="geometry">
            <Array as="points">
              <mxPoint x="700" y="120" />
            </Array>
          </mxGeometry>
        </mxCell>
        <mxCell id="6y1xAJ7a0zRgaMh8XxQY-33" style="edgeStyle=orthogonalEdgeStyle;curved=1;rounded=0;sketch=0;orthogonalLoop=1;jettySize=auto;html=1;exitX=1;exitY=0.5;exitDx=0;exitDy=0;entryX=0.5;entryY=1;entryDx=0;entryDy=0;shadow=0;dashed=1;endArrow=none;endFill=0;fillColor=#dae8fc;strokeColor=#6c8ebf;" edge="1" parent="46xnxFllRcmzvtGCd0vb-1" source="6y1xAJ7a0zRgaMh8XxQY-7" target="6y1xAJ7a0zRgaMh8XxQY-31">
          <mxGeometry relative="1" as="geometry" />
        </mxCell>
        <mxCell id="6y1xAJ7a0zRgaMh8XxQY-7" value="1.1.0" style="ellipse;whiteSpace=wrap;html=1;aspect=fixed;fillColor=#dae8fc;strokeColor=#6c8ebf;fontStyle=1;labelPosition=center;verticalLabelPosition=top;align=center;verticalAlign=bottom;fontColor=#0066CC;direction=east;" vertex="1" parent="46xnxFllRcmzvtGCd0vb-1">
          <mxGeometry x="690" y="160" width="20" height="20" as="geometry" />
        </mxCell>
        <mxCell id="6y1xAJ7a0zRgaMh8XxQY-37" value="" style="edgeStyle=orthogonalEdgeStyle;curved=1;rounded=0;sketch=0;orthogonalLoop=1;jettySize=auto;html=1;shadow=0;dashed=1;endArrow=none;endFill=0;" edge="1" parent="46xnxFllRcmzvtGCd0vb-1" source="6y1xAJ7a0zRgaMh8XxQY-10" target="6y1xAJ7a0zRgaMh8XxQY-36">
          <mxGeometry relative="1" as="geometry" />
        </mxCell>
        <mxCell id="6y1xAJ7a0zRgaMh8XxQY-10" value="" style="ellipse;whiteSpace=wrap;html=1;aspect=fixed;fontSize=10;" vertex="1" parent="46xnxFllRcmzvtGCd0vb-1">
          <mxGeometry x="510" y="291" width="20" height="20" as="geometry" />
        </mxCell>
        <mxCell id="6y1xAJ7a0zRgaMh8XxQY-16" value="" style="edgeStyle=orthogonalEdgeStyle;curved=1;rounded=0;sketch=0;orthogonalLoop=1;jettySize=auto;html=1;shadow=0;dashed=1;endArrow=none;endFill=0;entryX=0.5;entryY=1;entryDx=0;entryDy=0;" edge="1" parent="46xnxFllRcmzvtGCd0vb-1" source="6y1xAJ7a0zRgaMh8XxQY-12" target="6y1xAJ7a0zRgaMh8XxQY-10">
          <mxGeometry relative="1" as="geometry">
            <mxPoint x="540" y="385.5" as="targetPoint" />
          </mxGeometry>
        </mxCell>
        <mxCell id="6y1xAJ7a0zRgaMh8XxQY-12" value="" style="ellipse;whiteSpace=wrap;html=1;aspect=fixed;fontSize=10;direction=east;fillColor=#e1d5e7;strokeColor=#9673a6;" vertex="1" parent="46xnxFllRcmzvtGCd0vb-1">
          <mxGeometry x="470" y="370" width="20" height="20" as="geometry" />
        </mxCell>
        <mxCell id="6y1xAJ7a0zRgaMh8XxQY-20" value="" style="edgeStyle=orthogonalEdgeStyle;curved=1;rounded=0;sketch=0;orthogonalLoop=1;jettySize=auto;html=1;shadow=0;dashed=1;endArrow=none;endFill=0;fillColor=#ffe6cc;strokeColor=#d79b00;" edge="1" parent="46xnxFllRcmzvtGCd0vb-1" target="6y1xAJ7a0zRgaMh8XxQY-21">
          <mxGeometry relative="1" as="geometry">
            <mxPoint x="520" y="290" as="sourcePoint" />
            <Array as="points">
              <mxPoint x="520" y="250" />
            </Array>
          </mxGeometry>
        </mxCell>
        <mxCell id="6y1xAJ7a0zRgaMh8XxQY-25" style="edgeStyle=orthogonalEdgeStyle;curved=1;rounded=0;sketch=0;orthogonalLoop=1;jettySize=auto;html=1;exitX=1;exitY=0.5;exitDx=0;exitDy=0;entryX=0;entryY=0.5;entryDx=0;entryDy=0;shadow=0;dashed=1;endArrow=none;endFill=0;fillColor=#ffe6cc;strokeColor=#d79b00;" edge="1" parent="46xnxFllRcmzvtGCd0vb-1" source="6y1xAJ7a0zRgaMh8XxQY-21" target="6y1xAJ7a0zRgaMh8XxQY-23">
          <mxGeometry relative="1" as="geometry" />
        </mxCell>
        <mxCell id="6y1xAJ7a0zRgaMh8XxQY-21" value="" style="ellipse;whiteSpace=wrap;html=1;aspect=fixed;fontSize=10;fillColor=#ffe6cc;strokeColor=#d79b00;" vertex="1" parent="46xnxFllRcmzvtGCd0vb-1">
          <mxGeometry x="570" y="240" width="20" height="20" as="geometry" />
        </mxCell>
        <mxCell id="6y1xAJ7a0zRgaMh8XxQY-22" value="" style="edgeStyle=orthogonalEdgeStyle;curved=1;rounded=0;sketch=0;orthogonalLoop=1;jettySize=auto;html=1;shadow=0;dashed=1;endArrow=none;endFill=0;entryX=0.5;entryY=1;entryDx=0;entryDy=0;fillColor=#ffe6cc;strokeColor=#d79b00;" edge="1" parent="46xnxFllRcmzvtGCd0vb-1" source="6y1xAJ7a0zRgaMh8XxQY-23" target="6y1xAJ7a0zRgaMh8XxQY-7">
          <mxGeometry relative="1" as="geometry">
            <mxPoint x="693.97" y="190" as="targetPoint" />
          </mxGeometry>
        </mxCell>
        <mxCell id="6y1xAJ7a0zRgaMh8XxQY-23" value="" style="ellipse;whiteSpace=wrap;html=1;aspect=fixed;fontSize=10;fillColor=#ffe6cc;strokeColor=#d79b00;" vertex="1" parent="46xnxFllRcmzvtGCd0vb-1">
          <mxGeometry x="611" y="240" width="20" height="20" as="geometry" />
        </mxCell>
        <mxCell id="6y1xAJ7a0zRgaMh8XxQY-26" value="release/DCXX.YY" style="text;html=1;strokeColor=#d79b00;fillColor=#ffe6cc;align=center;verticalAlign=middle;whiteSpace=wrap;rounded=0;fontSize=12;" vertex="1" parent="46xnxFllRcmzvtGCd0vb-1">
          <mxGeometry x="480" y="220" width="100" height="20" as="geometry" />
        </mxCell>
        <mxCell id="6y1xAJ7a0zRgaMh8XxQY-28" value="DCXX.YY" style="shape=callout;whiteSpace=wrap;html=1;perimeter=calloutPerimeter;" vertex="1" parent="46xnxFllRcmzvtGCd0vb-1">
          <mxGeometry x="650" y="85" width="83.03" height="60" as="geometry" />
        </mxCell>
        <mxCell id="6y1xAJ7a0zRgaMh8XxQY-32" value="" style="edgeStyle=orthogonalEdgeStyle;curved=1;rounded=0;sketch=0;orthogonalLoop=1;jettySize=auto;html=1;shadow=0;dashed=1;endArrow=none;endFill=0;" edge="1" parent="46xnxFllRcmzvtGCd0vb-1" source="6y1xAJ7a0zRgaMh8XxQY-29" target="6y1xAJ7a0zRgaMh8XxQY-31">
          <mxGeometry relative="1" as="geometry" />
        </mxCell>
        <mxCell id="6y1xAJ7a0zRgaMh8XxQY-29" value="" style="ellipse;whiteSpace=wrap;html=1;aspect=fixed;fillColor=#f8cecc;strokeColor=#b85450;fontStyle=1;labelPosition=center;verticalLabelPosition=top;align=center;verticalAlign=bottom;direction=south;" vertex="1" parent="46xnxFllRcmzvtGCd0vb-1">
          <mxGeometry x="760" y="110" width="20" height="20" as="geometry" />
        </mxCell>
        <mxCell id="6y1xAJ7a0zRgaMh8XxQY-38" value="" style="edgeStyle=orthogonalEdgeStyle;curved=1;rounded=0;sketch=0;orthogonalLoop=1;jettySize=auto;html=1;shadow=0;dashed=1;endArrow=none;endFill=0;fillColor=#ffe6cc;strokeColor=#d79b00;" edge="1" parent="46xnxFllRcmzvtGCd0vb-1" source="6y1xAJ7a0zRgaMh8XxQY-31" target="6y1xAJ7a0zRgaMh8XxQY-36">
          <mxGeometry relative="1" as="geometry">
            <Array as="points">
              <mxPoint x="900" y="300" />
            </Array>
          </mxGeometry>
        </mxCell>
        <mxCell id="6y1xAJ7a0zRgaMh8XxQY-42" style="edgeStyle=orthogonalEdgeStyle;curved=1;rounded=0;sketch=0;orthogonalLoop=1;jettySize=auto;html=1;exitX=0.5;exitY=0;exitDx=0;exitDy=0;shadow=0;dashed=1;endArrow=none;endFill=0;fillColor=#dae8fc;strokeColor=#6c8ebf;" edge="1" parent="46xnxFllRcmzvtGCd0vb-1" source="6y1xAJ7a0zRgaMh8XxQY-31" target="46xnxFllRcmzvtGCd0vb-5">
          <mxGeometry relative="1" as="geometry" />
        </mxCell>
        <mxCell id="6y1xAJ7a0zRgaMh8XxQY-31" value="1.1.1" style="ellipse;whiteSpace=wrap;html=1;aspect=fixed;fillColor=#dae8fc;strokeColor=#6c8ebf;fontStyle=1;labelPosition=center;verticalLabelPosition=top;align=center;verticalAlign=bottom;fontColor=#0066CC;direction=south;" vertex="1" parent="46xnxFllRcmzvtGCd0vb-1">
          <mxGeometry x="890" y="160" width="20" height="20" as="geometry" />
        </mxCell>
        <mxCell id="6y1xAJ7a0zRgaMh8XxQY-34" value="hotfix/VSZZ.ZZ" style="text;html=1;strokeColor=#b85450;fillColor=#f8cecc;align=center;verticalAlign=middle;whiteSpace=wrap;rounded=0;" vertex="1" parent="46xnxFllRcmzvtGCd0vb-1">
          <mxGeometry x="780" y="90" width="90" height="20" as="geometry" />
        </mxCell>
        <mxCell id="6y1xAJ7a0zRgaMh8XxQY-35" value="VSZZ.ZZ" style="shape=callout;whiteSpace=wrap;html=1;perimeter=calloutPerimeter;" vertex="1" parent="46xnxFllRcmzvtGCd0vb-1">
          <mxGeometry x="880" y="85" width="83.03" height="60" as="geometry" />
        </mxCell>
        <mxCell id="6y1xAJ7a0zRgaMh8XxQY-43" style="edgeStyle=orthogonalEdgeStyle;curved=1;rounded=0;sketch=0;orthogonalLoop=1;jettySize=auto;html=1;exitX=1;exitY=0.5;exitDx=0;exitDy=0;shadow=0;dashed=1;endArrow=none;endFill=0;" edge="1" parent="46xnxFllRcmzvtGCd0vb-1" source="6y1xAJ7a0zRgaMh8XxQY-36" target="46xnxFllRcmzvtGCd0vb-36">
          <mxGeometry relative="1" as="geometry" />
        </mxCell>
        <mxCell id="6y1xAJ7a0zRgaMh8XxQY-36" value="" style="ellipse;whiteSpace=wrap;html=1;aspect=fixed;fontSize=10;" vertex="1" parent="46xnxFllRcmzvtGCd0vb-1">
          <mxGeometry x="943.03" y="290" width="20" height="20" as="geometry" />
        </mxCell>
        <mxCell id="0EmAz39eYyI4uLoAzbAh-0" value="&lt;b&gt;&lt;font style=&quot;font-size: 16px&quot;&gt;Cycle de développement pour une version MySys: V21.01.00&lt;/font&gt;&lt;/b&gt;&lt;br&gt;Un gitflow avec des branches releases à court terme.&lt;br&gt;Les lots DC contiennent des nouvelles fonctionnalités, donc on part du niveau des branches le plus bas : features et develop.&lt;br&gt;Pour les lots correctifs, on part directement du tag sur master avec des branches hotfixes&amp;nbsp;" style="rounded=1;whiteSpace=wrap;html=1;" vertex="1" parent="46xnxFllRcmzvtGCd0vb-1">
          <mxGeometry x="140" y="560" width="520" height="130" as="geometry" />
        </mxCell>
      </root>
    </mxGraphModel>
  </diagram>
  <diagram name="V21.01 // V21.05" id="5Um-0SX0eJPdjNA97xMk">
    <mxGraphModel dx="1422" dy="762" grid="1" gridSize="10" guides="1" tooltips="1" connect="1" arrows="1" fold="1" page="1" pageScale="1" pageWidth="1169" pageHeight="827" math="0" shadow="0">
      <root>
        <mxCell id="3nRolPimsFXKPVsyJIWw-0" />
        <mxCell id="3nRolPimsFXKPVsyJIWw-1" parent="3nRolPimsFXKPVsyJIWw-0" />
        <mxCell id="3nRolPimsFXKPVsyJIWw-2" value="Master" style="text;html=1;strokeColor=#6c8ebf;fillColor=#dae8fc;align=center;verticalAlign=middle;whiteSpace=wrap;rounded=0;" vertex="1" parent="3nRolPimsFXKPVsyJIWw-1">
          <mxGeometry x="990" y="160" width="90" height="20" as="geometry" />
        </mxCell>
        <mxCell id="3nRolPimsFXKPVsyJIWw-3" value="Hot-fixes" style="text;html=1;strokeColor=#b85450;fillColor=#f8cecc;align=center;verticalAlign=middle;whiteSpace=wrap;rounded=0;" vertex="1" parent="3nRolPimsFXKPVsyJIWw-1">
          <mxGeometry x="990" y="80" width="90" height="70" as="geometry" />
        </mxCell>
        <mxCell id="3nRolPimsFXKPVsyJIWw-4" value="" style="edgeStyle=orthogonalEdgeStyle;curved=1;rounded=0;sketch=0;orthogonalLoop=1;jettySize=auto;html=1;shadow=0;dashed=1;endArrow=none;endFill=0;fillColor=#dae8fc;strokeColor=#6c8ebf;" edge="1" parent="3nRolPimsFXKPVsyJIWw-1" source="3nRolPimsFXKPVsyJIWw-5" target="3nRolPimsFXKPVsyJIWw-38">
          <mxGeometry relative="1" as="geometry" />
        </mxCell>
        <mxCell id="3nRolPimsFXKPVsyJIWw-5" value="1.0.0" style="ellipse;whiteSpace=wrap;html=1;aspect=fixed;fillColor=#dae8fc;strokeColor=#6c8ebf;fontStyle=1;labelPosition=center;verticalLabelPosition=top;align=center;verticalAlign=bottom;fontColor=#0066CC;direction=east;" vertex="1" parent="3nRolPimsFXKPVsyJIWw-1">
          <mxGeometry x="353.97" y="160" width="20" height="20" as="geometry" />
        </mxCell>
        <mxCell id="3nRolPimsFXKPVsyJIWw-6" value="" style="endArrow=none;dashed=1;html=1;fillColor=#dae8fc;strokeColor=#6c8ebf;" edge="1" parent="3nRolPimsFXKPVsyJIWw-1" target="3nRolPimsFXKPVsyJIWw-5">
          <mxGeometry width="50" height="50" relative="1" as="geometry">
            <mxPoint x="50" y="170" as="sourcePoint" />
            <mxPoint x="690" y="160" as="targetPoint" />
            <Array as="points" />
          </mxGeometry>
        </mxCell>
        <mxCell id="3nRolPimsFXKPVsyJIWw-7" value="releases" style="text;html=1;strokeColor=#d79b00;fillColor=#ffe6cc;align=center;verticalAlign=middle;whiteSpace=wrap;rounded=0;fontSize=12;" vertex="1" parent="3nRolPimsFXKPVsyJIWw-1">
          <mxGeometry x="990" y="190" width="90" height="90" as="geometry" />
        </mxCell>
        <mxCell id="3nRolPimsFXKPVsyJIWw-8" style="edgeStyle=orthogonalEdgeStyle;curved=1;rounded=0;orthogonalLoop=1;jettySize=auto;html=1;exitX=0.5;exitY=0;exitDx=0;exitDy=0;dashed=1;endArrow=none;endFill=0;" edge="1" parent="3nRolPimsFXKPVsyJIWw-1" source="3nRolPimsFXKPVsyJIWw-21">
          <mxGeometry relative="1" as="geometry">
            <mxPoint x="140" y="351" as="targetPoint" />
          </mxGeometry>
        </mxCell>
        <mxCell id="3nRolPimsFXKPVsyJIWw-9" style="edgeStyle=orthogonalEdgeStyle;curved=1;rounded=0;orthogonalLoop=1;jettySize=auto;html=1;exitX=1;exitY=0.5;exitDx=0;exitDy=0;dashed=1;endArrow=none;endFill=0;" edge="1" parent="3nRolPimsFXKPVsyJIWw-1" source="3nRolPimsFXKPVsyJIWw-21">
          <mxGeometry relative="1" as="geometry">
            <mxPoint x="150" y="360" as="targetPoint" />
          </mxGeometry>
        </mxCell>
        <mxCell id="3nRolPimsFXKPVsyJIWw-10" style="edgeStyle=orthogonalEdgeStyle;curved=1;rounded=0;orthogonalLoop=1;jettySize=auto;html=1;dashed=1;endArrow=none;endFill=0;" edge="1" parent="3nRolPimsFXKPVsyJIWw-1" source="3nRolPimsFXKPVsyJIWw-11">
          <mxGeometry relative="1" as="geometry">
            <mxPoint x="130" y="360" as="targetPoint" />
          </mxGeometry>
        </mxCell>
        <mxCell id="3nRolPimsFXKPVsyJIWw-11" value="&lt;div style=&quot;text-align: justify&quot;&gt;&lt;span&gt;a&lt;/span&gt;&lt;/div&gt;" style="ellipse;whiteSpace=wrap;html=1;aspect=fixed;fontSize=10;fillColor=#e1d5e7;strokeColor=#9673a6;verticalAlign=top;labelPosition=left;verticalLabelPosition=bottom;align=right;horizontal=1;fontColor=#A680B8;spacing=0;spacingBottom=2;spacingLeft=0;spacingTop=-8;" vertex="1" parent="3nRolPimsFXKPVsyJIWw-1">
          <mxGeometry x="90" y="350" width="20" height="20" as="geometry" />
        </mxCell>
        <mxCell id="3nRolPimsFXKPVsyJIWw-12" value="develop" style="text;html=1;strokeColor=#666666;fillColor=#f5f5f5;align=center;verticalAlign=middle;whiteSpace=wrap;rounded=0;fontColor=#333333;" vertex="1" parent="3nRolPimsFXKPVsyJIWw-1">
          <mxGeometry x="990" y="290" width="90" height="20" as="geometry" />
        </mxCell>
        <mxCell id="3nRolPimsFXKPVsyJIWw-14" value="features" style="text;html=1;strokeColor=#9673a6;fillColor=#e1d5e7;align=center;verticalAlign=middle;whiteSpace=wrap;rounded=0;" vertex="1" parent="3nRolPimsFXKPVsyJIWw-1">
          <mxGeometry x="990" y="330" width="90" height="111" as="geometry" />
        </mxCell>
        <mxCell id="3nRolPimsFXKPVsyJIWw-15" value="&lt;b&gt;&lt;font style=&quot;font-size: 22px&quot;&gt;Version MySys 21.01.00 // 21.05.00&lt;/font&gt;&lt;/b&gt;" style="shape=card;whiteSpace=wrap;html=1;" vertex="1" parent="3nRolPimsFXKPVsyJIWw-1">
          <mxGeometry x="60" width="241" height="100" as="geometry" />
        </mxCell>
        <mxCell id="3nRolPimsFXKPVsyJIWw-16" style="edgeStyle=orthogonalEdgeStyle;curved=1;rounded=0;orthogonalLoop=1;jettySize=auto;html=1;exitX=0.5;exitY=1;exitDx=0;exitDy=0;entryX=0;entryY=0.5;entryDx=0;entryDy=0;dashed=1;endArrow=none;endFill=0;" edge="1" parent="3nRolPimsFXKPVsyJIWw-1" source="3nRolPimsFXKPVsyJIWw-17" target="3nRolPimsFXKPVsyJIWw-11">
          <mxGeometry relative="1" as="geometry" />
        </mxCell>
        <mxCell id="3nRolPimsFXKPVsyJIWw-17" value="" style="ellipse;whiteSpace=wrap;html=1;aspect=fixed;fontSize=12;fillColor=#FFFFFF;" vertex="1" parent="3nRolPimsFXKPVsyJIWw-1">
          <mxGeometry x="60" y="291" width="20" height="20" as="geometry" />
        </mxCell>
        <mxCell id="3nRolPimsFXKPVsyJIWw-18" value="" style="endArrow=none;dashed=1;html=1;fillColor=#dae8fc;strokeColor=#6c8ebf;" edge="1" parent="3nRolPimsFXKPVsyJIWw-1">
          <mxGeometry width="50" height="50" relative="1" as="geometry">
            <mxPoint x="460" y="170" as="sourcePoint" />
            <mxPoint x="460" y="170" as="targetPoint" />
          </mxGeometry>
        </mxCell>
        <mxCell id="3nRolPimsFXKPVsyJIWw-19" value="V21.01" style="shape=callout;whiteSpace=wrap;html=1;perimeter=calloutPerimeter;" vertex="1" parent="3nRolPimsFXKPVsyJIWw-1">
          <mxGeometry x="322.45000000000005" y="80" width="83.03" height="60" as="geometry" />
        </mxCell>
        <mxCell id="3nRolPimsFXKPVsyJIWw-20" value="" style="edgeStyle=orthogonalEdgeStyle;curved=1;rounded=0;orthogonalLoop=1;jettySize=auto;html=1;dashed=1;endArrow=none;endFill=0;" edge="1" parent="3nRolPimsFXKPVsyJIWw-1" source="3nRolPimsFXKPVsyJIWw-21" target="3nRolPimsFXKPVsyJIWw-26">
          <mxGeometry relative="1" as="geometry" />
        </mxCell>
        <mxCell id="3nRolPimsFXKPVsyJIWw-21" value="" style="ellipse;whiteSpace=wrap;html=1;aspect=fixed;fontSize=10;fillColor=#e1d5e7;strokeColor=#9673a6;" vertex="1" parent="3nRolPimsFXKPVsyJIWw-1">
          <mxGeometry x="130" y="350" width="20" height="20" as="geometry" />
        </mxCell>
        <mxCell id="3nRolPimsFXKPVsyJIWw-22" style="edgeStyle=orthogonalEdgeStyle;curved=1;rounded=0;orthogonalLoop=1;jettySize=auto;html=1;exitX=1;exitY=0.5;exitDx=0;exitDy=0;dashed=1;endArrow=none;endFill=0;" edge="1" parent="3nRolPimsFXKPVsyJIWw-1" source="3nRolPimsFXKPVsyJIWw-11" target="3nRolPimsFXKPVsyJIWw-21">
          <mxGeometry relative="1" as="geometry">
            <mxPoint x="110" y="360" as="sourcePoint" />
            <mxPoint x="150" y="360" as="targetPoint" />
          </mxGeometry>
        </mxCell>
        <mxCell id="3nRolPimsFXKPVsyJIWw-23" value="" style="edgeStyle=orthogonalEdgeStyle;curved=1;rounded=0;sketch=0;orthogonalLoop=1;jettySize=auto;html=1;shadow=0;dashed=1;endArrow=none;endFill=0;fillColor=#ffe6cc;strokeColor=#d79b00;" edge="1" parent="3nRolPimsFXKPVsyJIWw-1" source="3nRolPimsFXKPVsyJIWw-26" target="3nRolPimsFXKPVsyJIWw-28">
          <mxGeometry relative="1" as="geometry">
            <Array as="points">
              <mxPoint x="190" y="240" />
            </Array>
          </mxGeometry>
        </mxCell>
        <mxCell id="3nRolPimsFXKPVsyJIWw-24" value="" style="edgeStyle=orthogonalEdgeStyle;curved=1;rounded=0;sketch=0;orthogonalLoop=1;jettySize=auto;html=1;shadow=0;dashed=1;endArrow=none;endFill=0;" edge="1" parent="3nRolPimsFXKPVsyJIWw-1" source="3nRolPimsFXKPVsyJIWw-26" target="3nRolPimsFXKPVsyJIWw-17">
          <mxGeometry relative="1" as="geometry" />
        </mxCell>
        <mxCell id="3nRolPimsFXKPVsyJIWw-25" value="" style="edgeStyle=orthogonalEdgeStyle;curved=1;rounded=0;sketch=0;orthogonalLoop=1;jettySize=auto;html=1;shadow=0;dashed=1;endArrow=none;endFill=0;entryX=0;entryY=0.5;entryDx=0;entryDy=0;" edge="1" parent="3nRolPimsFXKPVsyJIWw-1" source="3nRolPimsFXKPVsyJIWw-26" target="3nRolPimsFXKPVsyJIWw-35">
          <mxGeometry relative="1" as="geometry">
            <mxPoint x="280" y="301" as="targetPoint" />
          </mxGeometry>
        </mxCell>
        <mxCell id="3nRolPimsFXKPVsyJIWw-59" style="edgeStyle=orthogonalEdgeStyle;curved=1;rounded=0;sketch=0;orthogonalLoop=1;jettySize=auto;html=1;exitX=1;exitY=1;exitDx=0;exitDy=0;shadow=0;dashed=1;endArrow=none;endFill=0;" edge="1" parent="3nRolPimsFXKPVsyJIWw-1" source="3nRolPimsFXKPVsyJIWw-26">
          <mxGeometry relative="1" as="geometry">
            <mxPoint x="260" y="450" as="targetPoint" />
            <Array as="points">
              <mxPoint x="197" y="450" />
            </Array>
          </mxGeometry>
        </mxCell>
        <mxCell id="3nRolPimsFXKPVsyJIWw-26" value="" style="ellipse;whiteSpace=wrap;html=1;aspect=fixed;fontSize=10;" vertex="1" parent="3nRolPimsFXKPVsyJIWw-1">
          <mxGeometry x="180" y="291" width="20" height="20" as="geometry" />
        </mxCell>
        <mxCell id="3nRolPimsFXKPVsyJIWw-27" value="" style="edgeStyle=orthogonalEdgeStyle;curved=1;rounded=0;sketch=0;orthogonalLoop=1;jettySize=auto;html=1;shadow=0;dashed=1;endArrow=none;endFill=0;fillColor=#ffe6cc;strokeColor=#d79b00;" edge="1" parent="3nRolPimsFXKPVsyJIWw-1" source="3nRolPimsFXKPVsyJIWw-28" target="3nRolPimsFXKPVsyJIWw-31">
          <mxGeometry relative="1" as="geometry" />
        </mxCell>
        <mxCell id="3nRolPimsFXKPVsyJIWw-28" value="" style="ellipse;whiteSpace=wrap;html=1;aspect=fixed;fontSize=10;fillColor=#ffe6cc;strokeColor=#d79b00;" vertex="1" parent="3nRolPimsFXKPVsyJIWw-1">
          <mxGeometry x="240" y="230" width="20" height="20" as="geometry" />
        </mxCell>
        <mxCell id="3nRolPimsFXKPVsyJIWw-29" value="" style="edgeStyle=orthogonalEdgeStyle;curved=1;rounded=0;sketch=0;orthogonalLoop=1;jettySize=auto;html=1;shadow=0;dashed=1;endArrow=none;endFill=0;entryX=0.5;entryY=1;entryDx=0;entryDy=0;fillColor=#ffe6cc;strokeColor=#d79b00;" edge="1" parent="3nRolPimsFXKPVsyJIWw-1" source="3nRolPimsFXKPVsyJIWw-31" target="3nRolPimsFXKPVsyJIWw-5">
          <mxGeometry relative="1" as="geometry">
            <mxPoint x="359" y="180" as="targetPoint" />
          </mxGeometry>
        </mxCell>
        <mxCell id="3nRolPimsFXKPVsyJIWw-30" value="" style="edgeStyle=orthogonalEdgeStyle;curved=1;rounded=0;sketch=0;orthogonalLoop=1;jettySize=auto;html=1;shadow=0;dashed=1;endArrow=none;endFill=0;exitX=1;exitY=1;exitDx=0;exitDy=0;fillColor=#fff2cc;strokeColor=#d6b656;" edge="1" parent="3nRolPimsFXKPVsyJIWw-1" source="3nRolPimsFXKPVsyJIWw-5" target="3nRolPimsFXKPVsyJIWw-35">
          <mxGeometry relative="1" as="geometry" />
        </mxCell>
        <mxCell id="3nRolPimsFXKPVsyJIWw-31" value="" style="ellipse;whiteSpace=wrap;html=1;aspect=fixed;fontSize=10;fillColor=#ffe6cc;strokeColor=#d79b00;" vertex="1" parent="3nRolPimsFXKPVsyJIWw-1">
          <mxGeometry x="281" y="230" width="20" height="20" as="geometry" />
        </mxCell>
        <mxCell id="3nRolPimsFXKPVsyJIWw-32" value="release/V21.01" style="text;html=1;strokeColor=#d79b00;fillColor=#ffe6cc;align=center;verticalAlign=middle;whiteSpace=wrap;rounded=0;fontSize=12;" vertex="1" parent="3nRolPimsFXKPVsyJIWw-1">
          <mxGeometry x="110" y="230" width="90" height="20" as="geometry" />
        </mxCell>
        <mxCell id="3nRolPimsFXKPVsyJIWw-33" value="" style="edgeStyle=orthogonalEdgeStyle;curved=1;rounded=0;sketch=0;orthogonalLoop=1;jettySize=auto;html=1;shadow=0;dashed=1;endArrow=none;endFill=0;" edge="1" parent="3nRolPimsFXKPVsyJIWw-1" source="3nRolPimsFXKPVsyJIWw-35" target="3nRolPimsFXKPVsyJIWw-40">
          <mxGeometry relative="1" as="geometry" />
        </mxCell>
        <mxCell id="3nRolPimsFXKPVsyJIWw-34" value="" style="edgeStyle=orthogonalEdgeStyle;curved=1;rounded=0;sketch=0;orthogonalLoop=1;jettySize=auto;html=1;shadow=0;dashed=1;endArrow=none;endFill=0;" edge="1" parent="3nRolPimsFXKPVsyJIWw-1" source="3nRolPimsFXKPVsyJIWw-35" target="3nRolPimsFXKPVsyJIWw-42">
          <mxGeometry relative="1" as="geometry">
            <Array as="points">
              <mxPoint x="420" y="380" />
            </Array>
          </mxGeometry>
        </mxCell>
        <mxCell id="3nRolPimsFXKPVsyJIWw-35" value="" style="ellipse;whiteSpace=wrap;html=1;aspect=fixed;fontSize=10;" vertex="1" parent="3nRolPimsFXKPVsyJIWw-1">
          <mxGeometry x="410" y="291" width="20" height="20" as="geometry" />
        </mxCell>
        <mxCell id="3nRolPimsFXKPVsyJIWw-36" value="" style="edgeStyle=orthogonalEdgeStyle;curved=1;rounded=0;sketch=0;orthogonalLoop=1;jettySize=auto;html=1;shadow=0;dashed=1;endArrow=none;endFill=0;" edge="1" parent="3nRolPimsFXKPVsyJIWw-1" source="3nRolPimsFXKPVsyJIWw-38" target="3nRolPimsFXKPVsyJIWw-51">
          <mxGeometry relative="1" as="geometry">
            <Array as="points">
              <mxPoint x="700" y="120" />
            </Array>
          </mxGeometry>
        </mxCell>
        <mxCell id="3nRolPimsFXKPVsyJIWw-37" style="edgeStyle=orthogonalEdgeStyle;curved=1;rounded=0;sketch=0;orthogonalLoop=1;jettySize=auto;html=1;exitX=1;exitY=0.5;exitDx=0;exitDy=0;entryX=0.5;entryY=1;entryDx=0;entryDy=0;shadow=0;dashed=1;endArrow=none;endFill=0;fillColor=#dae8fc;strokeColor=#6c8ebf;" edge="1" parent="3nRolPimsFXKPVsyJIWw-1" source="3nRolPimsFXKPVsyJIWw-38" target="3nRolPimsFXKPVsyJIWw-54">
          <mxGeometry relative="1" as="geometry" />
        </mxCell>
        <mxCell id="3nRolPimsFXKPVsyJIWw-38" value="1.1.0" style="ellipse;whiteSpace=wrap;html=1;aspect=fixed;fillColor=#dae8fc;strokeColor=#6c8ebf;fontStyle=1;labelPosition=center;verticalLabelPosition=top;align=center;verticalAlign=bottom;fontColor=#0066CC;direction=east;" vertex="1" parent="3nRolPimsFXKPVsyJIWw-1">
          <mxGeometry x="690" y="160" width="20" height="20" as="geometry" />
        </mxCell>
        <mxCell id="3nRolPimsFXKPVsyJIWw-39" value="" style="edgeStyle=orthogonalEdgeStyle;curved=1;rounded=0;sketch=0;orthogonalLoop=1;jettySize=auto;html=1;shadow=0;dashed=1;endArrow=none;endFill=0;" edge="1" parent="3nRolPimsFXKPVsyJIWw-1" source="3nRolPimsFXKPVsyJIWw-40" target="3nRolPimsFXKPVsyJIWw-58">
          <mxGeometry relative="1" as="geometry" />
        </mxCell>
        <mxCell id="O0_q4vk2cfNs5Dz5K1Sx-11" style="edgeStyle=orthogonalEdgeStyle;curved=1;rounded=0;sketch=0;orthogonalLoop=1;jettySize=auto;html=1;exitX=1;exitY=1;exitDx=0;exitDy=0;entryX=0.5;entryY=0;entryDx=0;entryDy=0;shadow=0;dashed=1;endArrow=none;endFill=0;" edge="1" parent="3nRolPimsFXKPVsyJIWw-1" source="3nRolPimsFXKPVsyJIWw-40" target="3nRolPimsFXKPVsyJIWw-65">
          <mxGeometry relative="1" as="geometry" />
        </mxCell>
        <mxCell id="3nRolPimsFXKPVsyJIWw-40" value="" style="ellipse;whiteSpace=wrap;html=1;aspect=fixed;fontSize=10;" vertex="1" parent="3nRolPimsFXKPVsyJIWw-1">
          <mxGeometry x="510" y="291" width="20" height="20" as="geometry" />
        </mxCell>
        <mxCell id="3nRolPimsFXKPVsyJIWw-41" value="" style="edgeStyle=orthogonalEdgeStyle;curved=1;rounded=0;sketch=0;orthogonalLoop=1;jettySize=auto;html=1;shadow=0;dashed=1;endArrow=none;endFill=0;entryX=0.5;entryY=1;entryDx=0;entryDy=0;" edge="1" parent="3nRolPimsFXKPVsyJIWw-1" source="3nRolPimsFXKPVsyJIWw-42" target="3nRolPimsFXKPVsyJIWw-40">
          <mxGeometry relative="1" as="geometry">
            <mxPoint x="540" y="385.5" as="targetPoint" />
          </mxGeometry>
        </mxCell>
        <mxCell id="3nRolPimsFXKPVsyJIWw-42" value="" style="ellipse;whiteSpace=wrap;html=1;aspect=fixed;fontSize=10;direction=east;fillColor=#e1d5e7;strokeColor=#9673a6;" vertex="1" parent="3nRolPimsFXKPVsyJIWw-1">
          <mxGeometry x="470" y="370" width="20" height="20" as="geometry" />
        </mxCell>
        <mxCell id="3nRolPimsFXKPVsyJIWw-43" value="" style="edgeStyle=orthogonalEdgeStyle;curved=1;rounded=0;sketch=0;orthogonalLoop=1;jettySize=auto;html=1;shadow=0;dashed=1;endArrow=none;endFill=0;fillColor=#ffe6cc;strokeColor=#d79b00;" edge="1" parent="3nRolPimsFXKPVsyJIWw-1" target="3nRolPimsFXKPVsyJIWw-45">
          <mxGeometry relative="1" as="geometry">
            <mxPoint x="520" y="290" as="sourcePoint" />
            <Array as="points">
              <mxPoint x="520" y="250" />
            </Array>
          </mxGeometry>
        </mxCell>
        <mxCell id="3nRolPimsFXKPVsyJIWw-44" style="edgeStyle=orthogonalEdgeStyle;curved=1;rounded=0;sketch=0;orthogonalLoop=1;jettySize=auto;html=1;exitX=1;exitY=0.5;exitDx=0;exitDy=0;entryX=0;entryY=0.5;entryDx=0;entryDy=0;shadow=0;dashed=1;endArrow=none;endFill=0;fillColor=#ffe6cc;strokeColor=#d79b00;" edge="1" parent="3nRolPimsFXKPVsyJIWw-1" source="3nRolPimsFXKPVsyJIWw-45" target="3nRolPimsFXKPVsyJIWw-47">
          <mxGeometry relative="1" as="geometry" />
        </mxCell>
        <mxCell id="3nRolPimsFXKPVsyJIWw-45" value="" style="ellipse;whiteSpace=wrap;html=1;aspect=fixed;fontSize=10;fillColor=#ffe6cc;strokeColor=#d79b00;" vertex="1" parent="3nRolPimsFXKPVsyJIWw-1">
          <mxGeometry x="570" y="240" width="20" height="20" as="geometry" />
        </mxCell>
        <mxCell id="3nRolPimsFXKPVsyJIWw-46" value="" style="edgeStyle=orthogonalEdgeStyle;curved=1;rounded=0;sketch=0;orthogonalLoop=1;jettySize=auto;html=1;shadow=0;dashed=1;endArrow=none;endFill=0;entryX=0.5;entryY=1;entryDx=0;entryDy=0;fillColor=#ffe6cc;strokeColor=#d79b00;" edge="1" parent="3nRolPimsFXKPVsyJIWw-1" source="3nRolPimsFXKPVsyJIWw-47" target="3nRolPimsFXKPVsyJIWw-38">
          <mxGeometry relative="1" as="geometry">
            <mxPoint x="693.97" y="190" as="targetPoint" />
          </mxGeometry>
        </mxCell>
        <mxCell id="3nRolPimsFXKPVsyJIWw-47" value="" style="ellipse;whiteSpace=wrap;html=1;aspect=fixed;fontSize=10;fillColor=#ffe6cc;strokeColor=#d79b00;" vertex="1" parent="3nRolPimsFXKPVsyJIWw-1">
          <mxGeometry x="611" y="240" width="20" height="20" as="geometry" />
        </mxCell>
        <mxCell id="3nRolPimsFXKPVsyJIWw-48" value="release/DCXX.YY" style="text;html=1;strokeColor=#d79b00;fillColor=#ffe6cc;align=center;verticalAlign=middle;whiteSpace=wrap;rounded=0;fontSize=12;" vertex="1" parent="3nRolPimsFXKPVsyJIWw-1">
          <mxGeometry x="480" y="220" width="100" height="20" as="geometry" />
        </mxCell>
        <mxCell id="3nRolPimsFXKPVsyJIWw-49" value="DCXX.YY" style="shape=callout;whiteSpace=wrap;html=1;perimeter=calloutPerimeter;" vertex="1" parent="3nRolPimsFXKPVsyJIWw-1">
          <mxGeometry x="650" y="85" width="83.03" height="60" as="geometry" />
        </mxCell>
        <mxCell id="3nRolPimsFXKPVsyJIWw-50" value="" style="edgeStyle=orthogonalEdgeStyle;curved=1;rounded=0;sketch=0;orthogonalLoop=1;jettySize=auto;html=1;shadow=0;dashed=1;endArrow=none;endFill=0;" edge="1" parent="3nRolPimsFXKPVsyJIWw-1" source="3nRolPimsFXKPVsyJIWw-51" target="3nRolPimsFXKPVsyJIWw-54">
          <mxGeometry relative="1" as="geometry" />
        </mxCell>
        <mxCell id="3nRolPimsFXKPVsyJIWw-51" value="" style="ellipse;whiteSpace=wrap;html=1;aspect=fixed;fillColor=#f8cecc;strokeColor=#b85450;fontStyle=1;labelPosition=center;verticalLabelPosition=top;align=center;verticalAlign=bottom;direction=south;" vertex="1" parent="3nRolPimsFXKPVsyJIWw-1">
          <mxGeometry x="760" y="110" width="20" height="20" as="geometry" />
        </mxCell>
        <mxCell id="3nRolPimsFXKPVsyJIWw-52" value="" style="edgeStyle=orthogonalEdgeStyle;curved=1;rounded=0;sketch=0;orthogonalLoop=1;jettySize=auto;html=1;shadow=0;dashed=1;endArrow=none;endFill=0;fillColor=#ffe6cc;strokeColor=#d79b00;" edge="1" parent="3nRolPimsFXKPVsyJIWw-1" source="3nRolPimsFXKPVsyJIWw-54" target="3nRolPimsFXKPVsyJIWw-58">
          <mxGeometry relative="1" as="geometry">
            <Array as="points">
              <mxPoint x="900" y="300" />
            </Array>
          </mxGeometry>
        </mxCell>
        <mxCell id="3nRolPimsFXKPVsyJIWw-53" style="edgeStyle=orthogonalEdgeStyle;curved=1;rounded=0;sketch=0;orthogonalLoop=1;jettySize=auto;html=1;exitX=0.5;exitY=0;exitDx=0;exitDy=0;shadow=0;dashed=1;endArrow=none;endFill=0;fillColor=#dae8fc;strokeColor=#6c8ebf;" edge="1" parent="3nRolPimsFXKPVsyJIWw-1" source="3nRolPimsFXKPVsyJIWw-54" target="3nRolPimsFXKPVsyJIWw-2">
          <mxGeometry relative="1" as="geometry" />
        </mxCell>
        <mxCell id="3nRolPimsFXKPVsyJIWw-54" value="1.1.1" style="ellipse;whiteSpace=wrap;html=1;aspect=fixed;fillColor=#dae8fc;strokeColor=#6c8ebf;fontStyle=1;labelPosition=center;verticalLabelPosition=top;align=center;verticalAlign=bottom;fontColor=#0066CC;direction=south;" vertex="1" parent="3nRolPimsFXKPVsyJIWw-1">
          <mxGeometry x="890" y="160" width="20" height="20" as="geometry" />
        </mxCell>
        <mxCell id="3nRolPimsFXKPVsyJIWw-55" value="hotfix/VSZZ.ZZ" style="text;html=1;strokeColor=#b85450;fillColor=#f8cecc;align=center;verticalAlign=middle;whiteSpace=wrap;rounded=0;" vertex="1" parent="3nRolPimsFXKPVsyJIWw-1">
          <mxGeometry x="780" y="90" width="90" height="20" as="geometry" />
        </mxCell>
        <mxCell id="3nRolPimsFXKPVsyJIWw-56" value="VSZZ.ZZ" style="shape=callout;whiteSpace=wrap;html=1;perimeter=calloutPerimeter;" vertex="1" parent="3nRolPimsFXKPVsyJIWw-1">
          <mxGeometry x="880" y="85" width="83.03" height="60" as="geometry" />
        </mxCell>
        <mxCell id="3nRolPimsFXKPVsyJIWw-57" style="edgeStyle=orthogonalEdgeStyle;curved=1;rounded=0;sketch=0;orthogonalLoop=1;jettySize=auto;html=1;exitX=1;exitY=0.5;exitDx=0;exitDy=0;shadow=0;dashed=1;endArrow=none;endFill=0;" edge="1" parent="3nRolPimsFXKPVsyJIWw-1" source="3nRolPimsFXKPVsyJIWw-58" target="3nRolPimsFXKPVsyJIWw-12">
          <mxGeometry relative="1" as="geometry" />
        </mxCell>
        <mxCell id="3nRolPimsFXKPVsyJIWw-58" value="" style="ellipse;whiteSpace=wrap;html=1;aspect=fixed;fontSize=10;" vertex="1" parent="3nRolPimsFXKPVsyJIWw-1">
          <mxGeometry x="943.03" y="290" width="20" height="20" as="geometry" />
        </mxCell>
        <mxCell id="3nRolPimsFXKPVsyJIWw-62" value="" style="edgeStyle=orthogonalEdgeStyle;curved=1;rounded=0;sketch=0;orthogonalLoop=1;jettySize=auto;html=1;shadow=0;dashed=1;endArrow=none;endFill=0;" edge="1" parent="3nRolPimsFXKPVsyJIWw-1" source="3nRolPimsFXKPVsyJIWw-60" target="3nRolPimsFXKPVsyJIWw-61">
          <mxGeometry relative="1" as="geometry" />
        </mxCell>
        <mxCell id="O0_q4vk2cfNs5Dz5K1Sx-7" style="edgeStyle=orthogonalEdgeStyle;curved=1;rounded=0;sketch=0;orthogonalLoop=1;jettySize=auto;html=1;exitX=0.5;exitY=1;exitDx=0;exitDy=0;entryX=0;entryY=0.5;entryDx=0;entryDy=0;shadow=0;dashed=1;endArrow=none;endFill=0;" edge="1" parent="3nRolPimsFXKPVsyJIWw-1" source="3nRolPimsFXKPVsyJIWw-60" target="O0_q4vk2cfNs5Dz5K1Sx-2">
          <mxGeometry relative="1" as="geometry" />
        </mxCell>
        <mxCell id="3nRolPimsFXKPVsyJIWw-60" value="" style="ellipse;whiteSpace=wrap;html=1;aspect=fixed;fontSize=10;fillColor=#e1d5e7;strokeColor=#9673a6;" vertex="1" parent="3nRolPimsFXKPVsyJIWw-1">
          <mxGeometry x="260" y="441" width="20" height="20" as="geometry" />
        </mxCell>
        <mxCell id="3nRolPimsFXKPVsyJIWw-64" value="" style="edgeStyle=orthogonalEdgeStyle;curved=1;rounded=0;sketch=0;orthogonalLoop=1;jettySize=auto;html=1;shadow=0;dashed=1;endArrow=none;endFill=0;" edge="1" parent="3nRolPimsFXKPVsyJIWw-1" source="3nRolPimsFXKPVsyJIWw-61" target="3nRolPimsFXKPVsyJIWw-63">
          <mxGeometry relative="1" as="geometry" />
        </mxCell>
        <mxCell id="3nRolPimsFXKPVsyJIWw-61" value="" style="ellipse;whiteSpace=wrap;html=1;aspect=fixed;fontSize=10;fillColor=#e1d5e7;strokeColor=#9673a6;" vertex="1" parent="3nRolPimsFXKPVsyJIWw-1">
          <mxGeometry x="360" y="441" width="20" height="20" as="geometry" />
        </mxCell>
        <mxCell id="3nRolPimsFXKPVsyJIWw-66" value="" style="edgeStyle=orthogonalEdgeStyle;curved=1;rounded=0;sketch=0;orthogonalLoop=1;jettySize=auto;html=1;shadow=0;dashed=1;endArrow=none;endFill=0;" edge="1" parent="3nRolPimsFXKPVsyJIWw-1" source="3nRolPimsFXKPVsyJIWw-63" target="3nRolPimsFXKPVsyJIWw-65">
          <mxGeometry relative="1" as="geometry" />
        </mxCell>
        <mxCell id="3nRolPimsFXKPVsyJIWw-63" value="" style="ellipse;whiteSpace=wrap;html=1;aspect=fixed;fontSize=10;fillColor=#e1d5e7;strokeColor=#9673a6;" vertex="1" parent="3nRolPimsFXKPVsyJIWw-1">
          <mxGeometry x="460" y="441" width="20" height="20" as="geometry" />
        </mxCell>
        <mxCell id="O0_q4vk2cfNs5Dz5K1Sx-9" style="edgeStyle=orthogonalEdgeStyle;curved=1;rounded=0;sketch=0;orthogonalLoop=1;jettySize=auto;html=1;exitX=1;exitY=0.5;exitDx=0;exitDy=0;shadow=0;dashed=1;endArrow=none;endFill=0;" edge="1" parent="3nRolPimsFXKPVsyJIWw-1" source="3nRolPimsFXKPVsyJIWw-65">
          <mxGeometry relative="1" as="geometry">
            <mxPoint x="950" y="451" as="targetPoint" />
          </mxGeometry>
        </mxCell>
        <mxCell id="3nRolPimsFXKPVsyJIWw-65" value="" style="ellipse;whiteSpace=wrap;html=1;aspect=fixed;fontSize=10;fillColor=#e1d5e7;strokeColor=#9673a6;" vertex="1" parent="3nRolPimsFXKPVsyJIWw-1">
          <mxGeometry x="670" y="441" width="20" height="20" as="geometry" />
        </mxCell>
        <mxCell id="O0_q4vk2cfNs5Dz5K1Sx-0" value="feature/V21.05" style="text;html=1;strokeColor=#9673a6;fillColor=#e1d5e7;align=center;verticalAlign=middle;whiteSpace=wrap;rounded=0;" vertex="1" parent="3nRolPimsFXKPVsyJIWw-1">
          <mxGeometry x="135.5" y="420" width="90" height="20" as="geometry" />
        </mxCell>
        <mxCell id="O0_q4vk2cfNs5Dz5K1Sx-4" style="edgeStyle=orthogonalEdgeStyle;curved=1;rounded=0;sketch=0;orthogonalLoop=1;jettySize=auto;html=1;exitX=1;exitY=0.5;exitDx=0;exitDy=0;entryX=0.5;entryY=1;entryDx=0;entryDy=0;shadow=0;dashed=1;endArrow=none;endFill=0;" edge="1" parent="3nRolPimsFXKPVsyJIWw-1" source="O0_q4vk2cfNs5Dz5K1Sx-2" target="3nRolPimsFXKPVsyJIWw-61">
          <mxGeometry relative="1" as="geometry" />
        </mxCell>
        <mxCell id="O0_q4vk2cfNs5Dz5K1Sx-2" value="" style="ellipse;whiteSpace=wrap;html=1;aspect=fixed;fontSize=10;fillColor=#e1d5e7;strokeColor=#9673a6;" vertex="1" parent="3nRolPimsFXKPVsyJIWw-1">
          <mxGeometry x="310" y="490" width="20" height="20" as="geometry" />
        </mxCell>
        <mxCell id="O0_q4vk2cfNs5Dz5K1Sx-14" value="Report du dev en cours" style="shape=callout;whiteSpace=wrap;html=1;perimeter=calloutPerimeter;" vertex="1" parent="3nRolPimsFXKPVsyJIWw-1">
          <mxGeometry x="638.49" y="330" width="83.03" height="60" as="geometry" />
        </mxCell>
        <mxCell id="oilXq77A6PIMMg_sZpQo-0" value="&lt;b&gt;&lt;font style=&quot;font-size: 16px&quot;&gt;Développement en parallèle de la V21.05.00 :&lt;/font&gt;&lt;/b&gt;&lt;br&gt;Une branche feature/V21.05.00 est tirée de develop au moment où on souhaite entamer les développement pour cette version.&lt;br&gt;Des features de type feature/featureOne peuvent être crées à partir de cette branche.&lt;br&gt;Pour éviter une grande divergence entre la branche feature/V21.05 et Develop,on peut faire des reports sur la branche feature/V21.05 avec des merges de préférence" style="rounded=1;whiteSpace=wrap;html=1;" vertex="1" parent="3nRolPimsFXKPVsyJIWw-1">
          <mxGeometry x="140" y="560" width="520" height="130" as="geometry" />
        </mxCell>
      </root>
    </mxGraphModel>
  </diagram>
  <diagram name="V21.01 -&gt; V21.05" id="_EL8zRY5AcmaahMh-f_D">
    <mxGraphModel dx="1422" dy="762" grid="1" gridSize="10" guides="1" tooltips="1" connect="1" arrows="1" fold="1" page="1" pageScale="1" pageWidth="1169" pageHeight="827" math="0" shadow="0">
      <root>
        <mxCell id="Ln28cb8m35up-aZZ07_F-0" />
        <mxCell id="Ln28cb8m35up-aZZ07_F-1" parent="Ln28cb8m35up-aZZ07_F-0" />
        <mxCell id="Ln28cb8m35up-aZZ07_F-2" value="Master" style="text;html=1;strokeColor=#6c8ebf;fillColor=#dae8fc;align=center;verticalAlign=middle;whiteSpace=wrap;rounded=0;" vertex="1" parent="Ln28cb8m35up-aZZ07_F-1">
          <mxGeometry x="990" y="160" width="90" height="20" as="geometry" />
        </mxCell>
        <mxCell id="Ln28cb8m35up-aZZ07_F-3" value="Hot-fixes" style="text;html=1;strokeColor=#b85450;fillColor=#f8cecc;align=center;verticalAlign=middle;whiteSpace=wrap;rounded=0;" vertex="1" parent="Ln28cb8m35up-aZZ07_F-1">
          <mxGeometry x="990" y="80" width="90" height="70" as="geometry" />
        </mxCell>
        <mxCell id="Ln28cb8m35up-aZZ07_F-4" value="" style="edgeStyle=orthogonalEdgeStyle;curved=1;rounded=0;sketch=0;orthogonalLoop=1;jettySize=auto;html=1;shadow=0;dashed=1;endArrow=none;endFill=0;fillColor=#dae8fc;strokeColor=#6c8ebf;" edge="1" parent="Ln28cb8m35up-aZZ07_F-1" source="Ln28cb8m35up-aZZ07_F-55" target="Ln28cb8m35up-aZZ07_F-38">
          <mxGeometry relative="1" as="geometry">
            <mxPoint x="373.97" y="170" as="sourcePoint" />
          </mxGeometry>
        </mxCell>
        <mxCell id="Ln28cb8m35up-aZZ07_F-7" value="releases" style="text;html=1;strokeColor=#d79b00;fillColor=#ffe6cc;align=center;verticalAlign=middle;whiteSpace=wrap;rounded=0;fontSize=12;" vertex="1" parent="Ln28cb8m35up-aZZ07_F-1">
          <mxGeometry x="990" y="190" width="90" height="90" as="geometry" />
        </mxCell>
        <mxCell id="Ln28cb8m35up-aZZ07_F-12" value="develop" style="text;html=1;strokeColor=#666666;fillColor=#f5f5f5;align=center;verticalAlign=middle;whiteSpace=wrap;rounded=0;fontColor=#333333;" vertex="1" parent="Ln28cb8m35up-aZZ07_F-1">
          <mxGeometry x="990" y="290" width="90" height="20" as="geometry" />
        </mxCell>
        <mxCell id="Ln28cb8m35up-aZZ07_F-13" value="features" style="text;html=1;strokeColor=#9673a6;fillColor=#e1d5e7;align=center;verticalAlign=middle;whiteSpace=wrap;rounded=0;" vertex="1" parent="Ln28cb8m35up-aZZ07_F-1">
          <mxGeometry x="990" y="330" width="90" height="111" as="geometry" />
        </mxCell>
        <mxCell id="Ln28cb8m35up-aZZ07_F-14" value="&lt;b&gt;&lt;font style=&quot;font-size: 22px&quot;&gt;Version MySys 21.01.00 --&amp;gt; 21.05.00&lt;/font&gt;&lt;/b&gt;" style="shape=card;whiteSpace=wrap;html=1;" vertex="1" parent="Ln28cb8m35up-aZZ07_F-1">
          <mxGeometry x="60" width="241" height="100" as="geometry" />
        </mxCell>
        <mxCell id="Ln28cb8m35up-aZZ07_F-17" value="" style="endArrow=none;dashed=1;html=1;fillColor=#dae8fc;strokeColor=#6c8ebf;" edge="1" parent="Ln28cb8m35up-aZZ07_F-1">
          <mxGeometry width="50" height="50" relative="1" as="geometry">
            <mxPoint x="103" y="170" as="sourcePoint" />
            <mxPoint x="103" y="170" as="targetPoint" />
          </mxGeometry>
        </mxCell>
        <mxCell id="Ln28cb8m35up-aZZ07_F-33" value="" style="edgeStyle=orthogonalEdgeStyle;curved=1;rounded=0;sketch=0;orthogonalLoop=1;jettySize=auto;html=1;shadow=0;dashed=1;endArrow=none;endFill=0;" edge="1" parent="Ln28cb8m35up-aZZ07_F-1" target="Ln28cb8m35up-aZZ07_F-41">
          <mxGeometry relative="1" as="geometry">
            <mxPoint x="73" y="301" as="sourcePoint" />
          </mxGeometry>
        </mxCell>
        <mxCell id="Ln28cb8m35up-aZZ07_F-37" style="edgeStyle=orthogonalEdgeStyle;curved=1;rounded=0;sketch=0;orthogonalLoop=1;jettySize=auto;html=1;exitX=1;exitY=0.5;exitDx=0;exitDy=0;entryX=0.5;entryY=1;entryDx=0;entryDy=0;shadow=0;dashed=1;endArrow=none;endFill=0;fillColor=#dae8fc;strokeColor=#6c8ebf;" edge="1" parent="Ln28cb8m35up-aZZ07_F-1" source="Ln28cb8m35up-aZZ07_F-38" target="Ln28cb8m35up-aZZ07_F-55">
          <mxGeometry relative="1" as="geometry" />
        </mxCell>
        <mxCell id="VBuX6T9ZrmzwvZiHQL-j-7" style="edgeStyle=orthogonalEdgeStyle;curved=1;rounded=0;sketch=0;orthogonalLoop=1;jettySize=auto;html=1;exitX=0.5;exitY=0;exitDx=0;exitDy=0;entryX=0.5;entryY=1;entryDx=0;entryDy=0;shadow=0;dashed=1;endArrow=none;endFill=0;" edge="1" parent="Ln28cb8m35up-aZZ07_F-1" source="Ln28cb8m35up-aZZ07_F-38" target="Ln28cb8m35up-aZZ07_F-52">
          <mxGeometry relative="1" as="geometry" />
        </mxCell>
        <mxCell id="VBuX6T9ZrmzwvZiHQL-j-14" style="edgeStyle=orthogonalEdgeStyle;curved=1;rounded=0;sketch=0;orthogonalLoop=1;jettySize=auto;html=1;exitX=0.5;exitY=1;exitDx=0;exitDy=0;entryX=0.5;entryY=0;entryDx=0;entryDy=0;shadow=0;dashed=1;endArrow=none;endFill=0;strokeColor=#000000;" edge="1" parent="Ln28cb8m35up-aZZ07_F-1" source="Ln28cb8m35up-aZZ07_F-38" target="Ln28cb8m35up-aZZ07_F-41">
          <mxGeometry relative="1" as="geometry" />
        </mxCell>
        <mxCell id="Ln28cb8m35up-aZZ07_F-38" value="1.5.0" style="ellipse;whiteSpace=wrap;html=1;aspect=fixed;fillColor=#dae8fc;strokeColor=#6c8ebf;fontStyle=1;labelPosition=center;verticalLabelPosition=top;align=center;verticalAlign=bottom;fontColor=#0066CC;direction=east;" vertex="1" parent="Ln28cb8m35up-aZZ07_F-1">
          <mxGeometry x="60" y="160" width="20" height="20" as="geometry" />
        </mxCell>
        <mxCell id="Ln28cb8m35up-aZZ07_F-39" value="" style="edgeStyle=orthogonalEdgeStyle;curved=1;rounded=0;sketch=0;orthogonalLoop=1;jettySize=auto;html=1;shadow=0;dashed=1;endArrow=none;endFill=0;entryX=0;entryY=0.5;entryDx=0;entryDy=0;" edge="1" parent="Ln28cb8m35up-aZZ07_F-1" source="Ln28cb8m35up-aZZ07_F-41" target="VBuX6T9ZrmzwvZiHQL-j-15">
          <mxGeometry relative="1" as="geometry">
            <mxPoint x="420" y="300" as="targetPoint" />
          </mxGeometry>
        </mxCell>
        <mxCell id="Ln28cb8m35up-aZZ07_F-41" value="" style="ellipse;whiteSpace=wrap;html=1;aspect=fixed;fontSize=10;" vertex="1" parent="Ln28cb8m35up-aZZ07_F-1">
          <mxGeometry x="153" y="291" width="20" height="20" as="geometry" />
        </mxCell>
        <mxCell id="Ln28cb8m35up-aZZ07_F-50" value="Dernier DC" style="shape=callout;whiteSpace=wrap;html=1;perimeter=calloutPerimeter;" vertex="1" parent="Ln28cb8m35up-aZZ07_F-1">
          <mxGeometry y="100" width="83.03" height="60" as="geometry" />
        </mxCell>
        <mxCell id="VBuX6T9ZrmzwvZiHQL-j-9" style="edgeStyle=orthogonalEdgeStyle;curved=1;rounded=0;sketch=0;orthogonalLoop=1;jettySize=auto;html=1;exitX=0.5;exitY=0;exitDx=0;exitDy=0;entryX=0;entryY=0.5;entryDx=0;entryDy=0;shadow=0;dashed=1;endArrow=none;endFill=0;" edge="1" parent="Ln28cb8m35up-aZZ07_F-1" source="Ln28cb8m35up-aZZ07_F-52" target="Ln28cb8m35up-aZZ07_F-55">
          <mxGeometry relative="1" as="geometry" />
        </mxCell>
        <mxCell id="Ln28cb8m35up-aZZ07_F-52" value="" style="ellipse;whiteSpace=wrap;html=1;aspect=fixed;fillColor=#f8cecc;strokeColor=#b85450;fontStyle=1;labelPosition=center;verticalLabelPosition=top;align=center;verticalAlign=bottom;direction=south;" vertex="1" parent="Ln28cb8m35up-aZZ07_F-1">
          <mxGeometry x="153" y="110" width="20" height="20" as="geometry" />
        </mxCell>
        <mxCell id="Ln28cb8m35up-aZZ07_F-54" style="edgeStyle=orthogonalEdgeStyle;curved=1;rounded=0;sketch=0;orthogonalLoop=1;jettySize=auto;html=1;exitX=0.5;exitY=0;exitDx=0;exitDy=0;shadow=0;dashed=1;endArrow=none;endFill=0;fillColor=#dae8fc;strokeColor=#6c8ebf;entryX=0.5;entryY=1;entryDx=0;entryDy=0;" edge="1" parent="Ln28cb8m35up-aZZ07_F-1" source="Ln28cb8m35up-aZZ07_F-55" target="o99HIWOVY_qxKGiIJT-H-5">
          <mxGeometry relative="1" as="geometry">
            <mxPoint x="760" y="170" as="targetPoint" />
          </mxGeometry>
        </mxCell>
        <mxCell id="Ln28cb8m35up-aZZ07_F-56" value="hotfix/VSZZ.ZZ" style="text;html=1;strokeColor=#b85450;fillColor=#f8cecc;align=center;verticalAlign=middle;whiteSpace=wrap;rounded=0;" vertex="1" parent="Ln28cb8m35up-aZZ07_F-1">
          <mxGeometry x="200" y="105" width="90" height="20" as="geometry" />
        </mxCell>
        <mxCell id="Ln28cb8m35up-aZZ07_F-58" style="edgeStyle=orthogonalEdgeStyle;curved=1;rounded=0;sketch=0;orthogonalLoop=1;jettySize=auto;html=1;exitX=1;exitY=0.5;exitDx=0;exitDy=0;shadow=0;dashed=1;endArrow=none;endFill=0;" edge="1" parent="Ln28cb8m35up-aZZ07_F-1" source="Ln28cb8m35up-aZZ07_F-59" target="Ln28cb8m35up-aZZ07_F-12">
          <mxGeometry relative="1" as="geometry" />
        </mxCell>
        <mxCell id="VBuX6T9ZrmzwvZiHQL-j-16" value="" style="edgeStyle=orthogonalEdgeStyle;curved=1;rounded=0;sketch=0;orthogonalLoop=1;jettySize=auto;html=1;shadow=0;dashed=1;endArrow=none;endFill=0;strokeColor=#000000;" edge="1" parent="Ln28cb8m35up-aZZ07_F-1" source="Ln28cb8m35up-aZZ07_F-59" target="VBuX6T9ZrmzwvZiHQL-j-15">
          <mxGeometry relative="1" as="geometry" />
        </mxCell>
        <mxCell id="Ln28cb8m35up-aZZ07_F-59" value="" style="ellipse;whiteSpace=wrap;html=1;aspect=fixed;fontSize=10;" vertex="1" parent="Ln28cb8m35up-aZZ07_F-1">
          <mxGeometry x="590.03" y="290" width="20" height="20" as="geometry" />
        </mxCell>
        <mxCell id="Ln28cb8m35up-aZZ07_F-63" value="" style="edgeStyle=orthogonalEdgeStyle;curved=1;rounded=0;sketch=0;orthogonalLoop=1;jettySize=auto;html=1;shadow=0;dashed=1;endArrow=none;endFill=0;" edge="1" parent="Ln28cb8m35up-aZZ07_F-1" target="Ln28cb8m35up-aZZ07_F-66">
          <mxGeometry relative="1" as="geometry">
            <mxPoint x="27" y="451" as="sourcePoint" />
          </mxGeometry>
        </mxCell>
        <mxCell id="Ln28cb8m35up-aZZ07_F-65" value="" style="edgeStyle=orthogonalEdgeStyle;curved=1;rounded=0;sketch=0;orthogonalLoop=1;jettySize=auto;html=1;shadow=0;dashed=1;endArrow=none;endFill=0;" edge="1" parent="Ln28cb8m35up-aZZ07_F-1" source="Ln28cb8m35up-aZZ07_F-66" target="Ln28cb8m35up-aZZ07_F-68">
          <mxGeometry relative="1" as="geometry" />
        </mxCell>
        <mxCell id="Ln28cb8m35up-aZZ07_F-66" value="" style="ellipse;whiteSpace=wrap;html=1;aspect=fixed;fontSize=10;fillColor=#e1d5e7;strokeColor=#9673a6;" vertex="1" parent="Ln28cb8m35up-aZZ07_F-1">
          <mxGeometry x="103" y="441" width="20" height="20" as="geometry" />
        </mxCell>
        <mxCell id="VBuX6T9ZrmzwvZiHQL-j-11" style="edgeStyle=orthogonalEdgeStyle;curved=1;rounded=0;sketch=0;orthogonalLoop=1;jettySize=auto;html=1;exitX=0.5;exitY=0;exitDx=0;exitDy=0;shadow=0;dashed=1;endArrow=none;endFill=0;" edge="1" parent="Ln28cb8m35up-aZZ07_F-1" source="Ln28cb8m35up-aZZ07_F-68">
          <mxGeometry relative="1" as="geometry">
            <mxPoint x="440" y="310" as="targetPoint" />
          </mxGeometry>
        </mxCell>
        <mxCell id="Ln28cb8m35up-aZZ07_F-68" value="" style="ellipse;whiteSpace=wrap;html=1;aspect=fixed;fontSize=10;fillColor=#e1d5e7;strokeColor=#9673a6;" vertex="1" parent="Ln28cb8m35up-aZZ07_F-1">
          <mxGeometry x="313" y="441" width="20" height="20" as="geometry" />
        </mxCell>
        <mxCell id="Ln28cb8m35up-aZZ07_F-73" value="&lt;b&gt;&lt;font style=&quot;font-size: 16px&quot;&gt;Passage de la V21.01 à la V21.05:&lt;/font&gt;&lt;/b&gt;&lt;br&gt;à un moment donné (Après la livraison du dernier DC de la V21.01 ou bien&amp;nbsp;&lt;span style=&quot;color: rgb(34 , 34 , 34) ; font-family: &amp;#34;google sans&amp;#34; , &amp;#34;arial&amp;#34; , sans-serif ; text-align: left ; background-color: rgb(255 , 255 , 255)&quot;&gt;&lt;font style=&quot;font-size: 12px&quot;&gt;Δt avant la date de la recette de V21.05&lt;/font&gt;&lt;/span&gt;&amp;nbsp;par exemple) on arrête le développement des nouvelles fonctionnalités pour la V21.01. Toute nouvelle demande sera traité dans la nouvelle version 21.05.&lt;br&gt;&amp;nbsp;&lt;br&gt;on merge la feature/V21.05 dans develop.&lt;br&gt;On ne pourra plus livrer de nouvelles fonctionnalités pour la V21.01.&lt;br&gt;Par contre on pourra bien livrer des hot-fixes.&lt;br&gt;Dès lors revient à la case de départ (diagramme 1). on pourra créer la branche release/V21.05 et entamer la phase de test en UTI/VFO&amp;nbsp;&amp;nbsp;" style="rounded=1;whiteSpace=wrap;html=1;" vertex="1" parent="Ln28cb8m35up-aZZ07_F-1">
          <mxGeometry x="140" y="510" width="520" height="180" as="geometry" />
        </mxCell>
        <mxCell id="Ln28cb8m35up-aZZ07_F-55" value="1.5.1" style="ellipse;whiteSpace=wrap;html=1;aspect=fixed;fillColor=#dae8fc;strokeColor=#6c8ebf;fontStyle=1;labelPosition=center;verticalLabelPosition=top;align=center;verticalAlign=bottom;fontColor=#0066CC;direction=south;" vertex="1" parent="Ln28cb8m35up-aZZ07_F-1">
          <mxGeometry x="261.49" y="160" width="20" height="20" as="geometry" />
        </mxCell>
        <mxCell id="VBuX6T9ZrmzwvZiHQL-j-1" value="" style="edgeStyle=orthogonalEdgeStyle;curved=1;rounded=0;sketch=0;orthogonalLoop=1;jettySize=auto;html=1;shadow=0;dashed=1;endArrow=none;endFill=0;fillColor=#dae8fc;strokeColor=#6c8ebf;" edge="1" parent="Ln28cb8m35up-aZZ07_F-1" target="Ln28cb8m35up-aZZ07_F-55">
          <mxGeometry relative="1" as="geometry">
            <mxPoint x="373.97" y="170" as="sourcePoint" />
            <mxPoint x="80" y="170" as="targetPoint" />
          </mxGeometry>
        </mxCell>
        <mxCell id="VBuX6T9ZrmzwvZiHQL-j-12" value="Mise à jour Develop pour la V21.05" style="shape=callout;whiteSpace=wrap;html=1;perimeter=calloutPerimeter;" vertex="1" parent="Ln28cb8m35up-aZZ07_F-1">
          <mxGeometry x="330" y="310" width="83.03" height="80" as="geometry" />
        </mxCell>
        <mxCell id="-vvoO2BFCIbW2PiuxWmH-4" style="edgeStyle=orthogonalEdgeStyle;curved=1;rounded=0;sketch=0;orthogonalLoop=1;jettySize=auto;html=1;exitX=1;exitY=0.5;exitDx=0;exitDy=0;entryX=0;entryY=0.5;entryDx=0;entryDy=0;shadow=0;dashed=1;endArrow=none;endFill=0;strokeColor=#000000;" edge="1" parent="Ln28cb8m35up-aZZ07_F-1" source="VBuX6T9ZrmzwvZiHQL-j-15" target="-vvoO2BFCIbW2PiuxWmH-3">
          <mxGeometry relative="1" as="geometry" />
        </mxCell>
        <mxCell id="VBuX6T9ZrmzwvZiHQL-j-15" value="" style="ellipse;whiteSpace=wrap;html=1;aspect=fixed;fontSize=10;" vertex="1" parent="Ln28cb8m35up-aZZ07_F-1">
          <mxGeometry x="430" y="290" width="20" height="20" as="geometry" />
        </mxCell>
        <mxCell id="yPCKzrivCkM6_7rWU299-0" value="" style="html=1;points=[];perimeter=orthogonalPerimeter;shadow=0;sketch=1;fontSize=10;fillColor=#ffe6cc;strokeColor=#d79b00;" vertex="1" parent="Ln28cb8m35up-aZZ07_F-1">
          <mxGeometry x="460.00000000000006" y="211" width="17.05" height="80" as="geometry" />
        </mxCell>
        <mxCell id="o99HIWOVY_qxKGiIJT-H-0" value="" style="edgeStyle=orthogonalEdgeStyle;curved=1;rounded=0;sketch=0;orthogonalLoop=1;jettySize=auto;html=1;shadow=0;dashed=1;endArrow=none;endFill=0;fillColor=#ffe6cc;strokeColor=#d79b00;" edge="1" parent="Ln28cb8m35up-aZZ07_F-1" target="o99HIWOVY_qxKGiIJT-H-1">
          <mxGeometry relative="1" as="geometry">
            <mxPoint x="600" y="290" as="sourcePoint" />
            <Array as="points">
              <mxPoint x="600" y="239" />
            </Array>
          </mxGeometry>
        </mxCell>
        <mxCell id="o99HIWOVY_qxKGiIJT-H-6" style="edgeStyle=orthogonalEdgeStyle;curved=1;rounded=0;sketch=0;orthogonalLoop=1;jettySize=auto;html=1;exitX=1;exitY=0.5;exitDx=0;exitDy=0;shadow=0;dashed=1;endArrow=none;endFill=0;strokeColor=#d79b00;fillColor=#ffe6cc;" edge="1" parent="Ln28cb8m35up-aZZ07_F-1" source="o99HIWOVY_qxKGiIJT-H-1">
          <mxGeometry relative="1" as="geometry">
            <mxPoint x="690" y="239" as="targetPoint" />
          </mxGeometry>
        </mxCell>
        <mxCell id="o99HIWOVY_qxKGiIJT-H-1" value="" style="ellipse;whiteSpace=wrap;html=1;aspect=fixed;fontSize=10;fillColor=#ffe6cc;strokeColor=#d79b00;" vertex="1" parent="Ln28cb8m35up-aZZ07_F-1">
          <mxGeometry x="650" y="229" width="20" height="20" as="geometry" />
        </mxCell>
        <mxCell id="o99HIWOVY_qxKGiIJT-H-2" value="" style="edgeStyle=orthogonalEdgeStyle;curved=1;rounded=0;sketch=0;orthogonalLoop=1;jettySize=auto;html=1;shadow=0;dashed=1;endArrow=none;endFill=0;entryX=1;entryY=0.5;entryDx=0;entryDy=0;fillColor=#ffe6cc;strokeColor=#d79b00;" edge="1" parent="Ln28cb8m35up-aZZ07_F-1" source="o99HIWOVY_qxKGiIJT-H-3" target="o99HIWOVY_qxKGiIJT-H-5">
          <mxGeometry relative="1" as="geometry">
            <mxPoint x="773.9700000000003" y="179" as="targetPoint" />
          </mxGeometry>
        </mxCell>
        <mxCell id="o99HIWOVY_qxKGiIJT-H-3" value="" style="ellipse;whiteSpace=wrap;html=1;aspect=fixed;fontSize=10;fillColor=#ffe6cc;strokeColor=#d79b00;" vertex="1" parent="Ln28cb8m35up-aZZ07_F-1">
          <mxGeometry x="691" y="229" width="20" height="20" as="geometry" />
        </mxCell>
        <mxCell id="o99HIWOVY_qxKGiIJT-H-4" value="release/V21.05" style="text;html=1;strokeColor=#d79b00;fillColor=#ffe6cc;align=center;verticalAlign=middle;whiteSpace=wrap;rounded=0;fontSize=12;" vertex="1" parent="Ln28cb8m35up-aZZ07_F-1">
          <mxGeometry x="520" y="229" width="90" height="20" as="geometry" />
        </mxCell>
        <mxCell id="o99HIWOVY_qxKGiIJT-H-7" style="edgeStyle=orthogonalEdgeStyle;curved=1;rounded=0;sketch=0;orthogonalLoop=1;jettySize=auto;html=1;exitX=0.5;exitY=0;exitDx=0;exitDy=0;entryX=0;entryY=0.5;entryDx=0;entryDy=0;shadow=0;dashed=1;endArrow=none;endFill=0;strokeColor=#6c8ebf;fillColor=#dae8fc;" edge="1" parent="Ln28cb8m35up-aZZ07_F-1" source="o99HIWOVY_qxKGiIJT-H-5" target="Ln28cb8m35up-aZZ07_F-2">
          <mxGeometry relative="1" as="geometry" />
        </mxCell>
        <mxCell id="o99HIWOVY_qxKGiIJT-H-5" value="2.0.0" style="ellipse;whiteSpace=wrap;html=1;aspect=fixed;fillColor=#dae8fc;strokeColor=#6c8ebf;fontStyle=1;labelPosition=center;verticalLabelPosition=top;align=center;verticalAlign=bottom;fontColor=#0066CC;direction=south;" vertex="1" parent="Ln28cb8m35up-aZZ07_F-1">
          <mxGeometry x="770" y="160" width="20" height="20" as="geometry" />
        </mxCell>
        <mxCell id="LHazjPtTheFvoM5KE21d-0" value="feature/V21.05" style="text;html=1;strokeColor=#9673a6;fillColor=#e1d5e7;align=center;verticalAlign=middle;whiteSpace=wrap;rounded=0;" vertex="1" parent="Ln28cb8m35up-aZZ07_F-1">
          <mxGeometry x="13" y="414" width="90" height="20" as="geometry" />
        </mxCell>
        <mxCell id="-vvoO2BFCIbW2PiuxWmH-5" style="edgeStyle=orthogonalEdgeStyle;curved=1;rounded=0;sketch=0;orthogonalLoop=1;jettySize=auto;html=1;exitX=1;exitY=0.5;exitDx=0;exitDy=0;entryX=0;entryY=0.5;entryDx=0;entryDy=0;shadow=0;dashed=1;endArrow=none;endFill=0;strokeColor=#000000;" edge="1" parent="Ln28cb8m35up-aZZ07_F-1" source="-vvoO2BFCIbW2PiuxWmH-3" target="Ln28cb8m35up-aZZ07_F-59">
          <mxGeometry relative="1" as="geometry" />
        </mxCell>
        <mxCell id="-vvoO2BFCIbW2PiuxWmH-3" value="" style="ellipse;whiteSpace=wrap;html=1;aspect=fixed;fontSize=10;fillColor=#e1d5e7;strokeColor=#9673a6;" vertex="1" parent="Ln28cb8m35up-aZZ07_F-1">
          <mxGeometry x="510" y="350" width="20" height="20" as="geometry" />
        </mxCell>
        <mxCell id="-vvoO2BFCIbW2PiuxWmH-6" value="" style="verticalLabelPosition=bottom;verticalAlign=top;html=1;shape=mxgraph.basic.x;strokeColor=#FF0000;fillColor=#FF3333;" vertex="1" parent="Ln28cb8m35up-aZZ07_F-1">
          <mxGeometry x="355.04" y="434" width="32.95" height="26" as="geometry" />
        </mxCell>
      </root>
    </mxGraphModel>
  </diagram>
</mxfile>
